<?xml version="1.0" encoding="utf-8"?>
<!-- Generator: Adobe Illustrator 24.1.0, SVG Export Plug-In . SVG Version: 6.00 Build 0)  -->
<svg version="1.1" id="Layer_1" xmlns="http://www.w3.org/2000/svg" xmlns:xlink="http://www.w3.org/1999/xlink" x="0px" y="0px"
	 viewBox="0 0 512 512" style="enable-background:new 0 0 512 512;" xml:space="preserve">
<style type="text/css">
	.st0{fill:#0181F5;}
</style>
<g>
	<g>
		<path class="st0" d="M437.6,297.3c-4.6,0-8.3,3.7-8.3,8.3V362c0,9.6-7.8,17.4-17.4,17.4H212.6c-4.6,0-8.3,3.7-8.3,8.3
			s3.7,8.3,8.3,8.3h0.6l-9.5,39.7c-0.6,2.5,0,5.1,1.5,7c1.6,2,4,3.1,6.5,3.1h111.7c4.6,0,8.3-3.7,8.3-8.3s-3.7-8.3-8.3-8.3h-32.4
			l-8-33.3h129c18.7,0,33.9-15.2,33.9-33.9v-56.5C445.9,301,442.2,297.3,437.6,297.3z M222.1,429.3l8-33.3h35.8l8,33.3H222.1z"/>
	</g>
</g>
<g>
	<g>
		<path class="st0" d="M346.6,92.3H75.3c-18.7,0-34,15.2-34,33.9l0,78.9c0,4.6,3.7,8.3,8.3,8.3s8.3-3.7,8.3-8.3l0-78.9
			c0-9.6,7.8-17.4,17.4-17.4h271.3c4.6,0,8.3-3.7,8.3-8.3C354.8,96,351.1,92.3,346.6,92.3z"/>
	</g>
</g>
<g>
	<g>
		<path class="st0" d="M413.7,344.2H210.4c-4.6,0-8.3,3.7-8.3,8.3s3.7,8.3,8.3,8.3h203.4c4.6,0,8.3-3.7,8.3-8.3
			S418.3,344.2,413.7,344.2z"/>
	</g>
</g>
<g>
	<g>
		<path class="st0" d="M346.6,127.5H73.5c-4.6,0-8.3,3.7-8.3,8.3s3.7,8.3,8.3,8.3h273.1c4.6,0,8.3-3.7,8.3-8.3
			C354.8,131.2,351.1,127.5,346.6,127.5z"/>
	</g>
</g>
<g>
	<g>
		<path class="st0" d="M503.7,203.4c4.6,0,8.3-3.7,8.3-8.3v-127c0-14.3-11.6-26-26-26h-96.9c-14.3,0-26,11.6-26,26v195.6
			c0,14.3,11.6,26,26,26H486c14.3,0,26-11.6,26-26v-43.8c0-4.6-3.7-8.3-8.3-8.3s-8.3,3.7-8.3,8.3v43.8c0,5.2-4.2,9.4-9.4,9.4h-96.9
			c-5.2,0-9.4-4.2-9.4-9.4V68.1c0-5.2,4.2-9.4,9.4-9.4H486c5.2,0,9.4,4.2,9.4,9.4v127C495.5,199.7,499.2,203.4,503.7,203.4z"/>
	</g>
</g>
<g>
	<g>
		<path class="st0" d="M329.6,211L309,190.5c-3.2-3.2-8.5-3.2-11.7,0c-3.2,3.2-3.2,8.5,0,11.7l6.4,6.4h-72.1c-4.6,0-8.3,3.7-8.3,8.3
			s3.7,8.3,8.3,8.3h72.1l-6.4,6.4c-3.2,3.2-3.2,8.5,0,11.7c1.6,1.6,3.7,2.4,5.8,2.4c2.1,0,4.2-0.8,5.8-2.4l20.5-20.5
			C332.8,219.5,332.8,214.3,329.6,211z"/>
	</g>
</g>
<g>
	<g>
		<path class="st0" d="M323.7,267h-72.1l6.4-6.4c3.2-3.2,3.2-8.5,0-11.7c-3.2-3.2-8.5-3.2-11.7,0l-20.5,20.5
			c-1.6,1.6-2.4,3.7-2.4,5.8s0.9,4.3,2.4,5.8l20.5,20.5c1.6,1.6,3.7,2.4,5.8,2.4c2.1,0,4.2-0.8,5.8-2.4c3.2-3.2,3.2-8.5,0-11.7
			l-6.4-6.4h72.1c4.6,0,8.3-3.7,8.3-8.3S328.3,267,323.7,267z"/>
	</g>
</g>
<g>
	<g>
		<path class="st0" d="M480.1,86.9h-85.1c-4.6,0-8.3,3.7-8.3,8.3s3.7,8.3,8.3,8.3h85.1c4.6,0,8.3-3.7,8.3-8.3S484.7,86.9,480.1,86.9
			z"/>
	</g>
</g>
<g>
	<g>
		<path class="st0" d="M480.1,228.4h-85.1c-4.6,0-8.3,3.7-8.3,8.3s3.7,8.3,8.3,8.3h85.1c4.6,0,8.3-3.7,8.3-8.3
			S484.7,228.4,480.1,228.4z"/>
	</g>
</g>
<g>
	<g>
		<path class="st0" d="M167.9,222.3H26c-14.3,0-26,11.6-26,26v49.2c0,4.6,3.7,8.3,8.3,8.3s8.3-3.7,8.3-8.3v-49.2
			c0-5.2,4.2-9.4,9.4-9.4h141.9c5.2,0,9.4,4.2,9.4,9.4v195.6c0,5.2-4.2,9.4-9.4,9.4H26c-5.2,0-9.4-4.2-9.4-9.4V323
			c0-4.6-3.7-8.3-8.3-8.3S0,318.4,0,323v120.9c0,14.3,11.6,26,26,26h141.9c14.3,0,26-11.6,26-26V248.2
			C193.8,233.9,182.2,222.3,167.9,222.3z"/>
	</g>
</g>
<g>
	<g>
		<path class="st0" d="M163.8,267H30c-4.6,0-8.3,3.7-8.3,8.3s3.7,8.3,8.3,8.3h133.8c4.6,0,8.3-3.7,8.3-8.3S168.4,267,163.8,267z"/>
	</g>
</g>
<g>
	<g>
		<path class="st0" d="M163.8,408.6H30c-4.6,0-8.3,3.7-8.3,8.3s3.7,8.3,8.3,8.3h133.8c4.6,0,8.3-3.7,8.3-8.3
			C172.1,412.3,168.4,408.6,163.8,408.6z"/>
	</g>
</g>
<g>
	<g>
		<circle class="st0" cx="437.6" cy="258.9" r="8.3"/>
	</g>
</g>
<g>
	<g>
		<circle class="st0" cx="96.9" cy="439.5" r="8.3"/>
	</g>
</g>
</svg>
