<?xml version="1.0" encoding="utf-8"?>
<!-- Generator: Adobe Illustrator 24.1.0, SVG Export Plug-In . SVG Version: 6.00 Build 0)  -->
<svg version="1.1" id="Layer_1" xmlns="http://www.w3.org/2000/svg" xmlns:xlink="http://www.w3.org/1999/xlink" x="0px" y="0px"
	 viewBox="0 0 512 512" style="enable-background:new 0 0 512 512;" xml:space="preserve">
<style type="text/css">
	.st0{fill:#0181F5;}
</style>
<g>
	<g>
		<path class="st0" d="M437.3,213.3c5.9,0,10.7-4.8,10.7-10.7v-128c0-29.4-23.9-53.3-53.3-53.3H53.3C23.9,21.3,0,45.3,0,74.7v362.7
			c0,29.4,23.9,53.3,53.3,53.3h341.3c29.4,0,53.3-23.9,53.3-53.3v-64c0-5.9-4.8-10.7-10.7-10.7s-10.7,4.8-10.7,10.7v64
			c0,17.6-14.4,32-32,32H53.3c-17.6,0-32-14.4-32-32V128h405.3v74.7C426.7,208.6,431.4,213.3,437.3,213.3z M21.3,106.7v-32
			c0-17.6,14.4-32,32-32h341.3c17.6,0,32,14.4,32,32v32H21.3z"/>
	</g>
</g>
<g>
	<g>
		<circle class="st0" cx="53.3" cy="74.7" r="10.7"/>
	</g>
</g>
<g>
	<g>
		<circle class="st0" cx="96" cy="74.7" r="10.7"/>
	</g>
</g>
<g>
	<g>
		<circle class="st0" cx="138.7" cy="74.7" r="10.7"/>
	</g>
</g>
<g>
	<g>
		<path class="st0" d="M117.3,234.7c-5.9,0-10.7,4.8-10.7,10.7v32H64v-32c0-5.9-4.8-10.7-10.7-10.7s-10.7,4.8-10.7,10.7v85.3
			c0,5.9,4.8,10.7,10.7,10.7S64,336.6,64,330.7v-32h42.7v32c0,5.9,4.8,10.7,10.7,10.7s10.7-4.8,10.7-10.7v-85.3
			C128,239.4,123.2,234.7,117.3,234.7z"/>
	</g>
</g>
<g>
	<g>
		<path class="st0" d="M202.7,234.7H160c-5.9,0-10.7,4.8-10.7,10.7S154.1,256,160,256h10.7v74.7c0,5.9,4.8,10.7,10.7,10.7
			s10.7-4.8,10.7-10.7V256h10.7c5.9,0,10.7-4.8,10.7-10.7S208.6,234.7,202.7,234.7z"/>
	</g>
</g>
<g>
	<g>
		<path class="st0" d="M288,234.7h-42.7c-5.9,0-10.7,4.8-10.7,10.7s4.8,10.7,10.7,10.7H256v74.7c0,5.9,4.8,10.7,10.7,10.7
			s10.7-4.8,10.7-10.7V256H288c5.9,0,10.7-4.8,10.7-10.7S293.9,234.7,288,234.7z"/>
	</g>
</g>
<g>
	<g>
		<path class="st0" d="M352,234.7h-21.3c-5.9,0-10.7,4.8-10.7,10.7v85.3c0,5.9,4.8,10.7,10.7,10.7s10.7-4.8,10.7-10.7v-32H352
			c17.6,0,32-14.4,32-32S369.6,234.7,352,234.7z M352,277.3h-10.7V256H352c5.9,0,10.7,4.8,10.7,10.7S357.9,277.3,352,277.3z"/>
	</g>
</g>
<g>
	<g>
		<path class="st0" d="M503.9,235c-5.8-1.5-11.5,2-12.9,7.8l-21.3,85.3c-1.4,5.7,2,11.5,7.8,12.9c0.9,0.2,1.7,0.3,2.6,0.3
			c4.8,0,9.2-3.2,10.3-8.1l21.3-85.3C513.1,242.2,509.7,236.4,503.9,235z"/>
	</g>
</g>
<g>
	<g>
		<path class="st0" d="M461.2,235c-5.8-1.5-11.5,2-12.9,7.8L427,328.1c-1.4,5.7,2,11.5,7.8,12.9c0.9,0.2,1.7,0.3,2.6,0.3
			c4.8,0,9.2-3.2,10.3-8.1l21.3-85.3C470.4,242.2,467,236.4,461.2,235z"/>
	</g>
</g>
<g>
	<g>
		<circle class="st0" cx="416" cy="266.7" r="10.7"/>
	</g>
</g>
<g>
	<g>
		<circle class="st0" cx="416" cy="309.3" r="10.7"/>
	</g>
</g>
</svg>
