<?xml version="1.0" encoding="utf-8"?>
<!-- Generator: Adobe Illustrator 24.1.0, SVG Export Plug-In . SVG Version: 6.00 Build 0)  -->
<svg version="1.1" id="Layer_1" xmlns="http://www.w3.org/2000/svg" xmlns:xlink="http://www.w3.org/1999/xlink" x="0px" y="0px"
	 viewBox="0 0 512 512" style="enable-background:new 0 0 512 512;" xml:space="preserve">
<style type="text/css">
	.st0{fill:#0181F5;}
</style>
<g>
	<g>
		<path class="st0" d="M487.9,3.5C485.9,1.3,483,0,480,0H32c-3,0-5.9,1.3-7.9,3.5c-2,2.2-3,5.2-2.7,8.2L64,438.4
			c0.4,4.2,3.2,7.7,7.2,9l192,64c1.1,0.4,2.2,0.6,3.4,0.6c1.3,0,2.5-0.2,3.8-0.7l170.7-64c3.8-1.4,6.5-4.9,6.9-8.9l42.7-426.7
			C490.9,8.7,489.9,5.7,487.9,3.5z M427.3,429.7L266.4,490L84.6,429.4L43.8,21.3h424.4L427.3,429.7z"/>
	</g>
</g>
<g>
	<g>
		<path class="st0" d="M403.1,110.8c-2-2.6-5.1-4.1-8.4-4.1H288c-5.9,0-10.7,4.8-10.7,10.7v128c0,5.9,4.8,10.7,10.7,10.7h72.6
			l-17.9,98.5l-58,19.3c-5.6,1.9-8.6,7.9-6.7,13.5c1.5,4.5,5.7,7.3,10.1,7.3c1.1,0,2.2-0.2,3.4-0.5l64-21.3c3.7-1.2,6.4-4.4,7.1-8.2
			l21.3-117.3c0.6-3.1-0.3-6.3-2.3-8.7s-5-3.8-8.2-3.8h-74.7V128H381l-7.3,29.4c-1.4,5.7,2,11.5,7.8,12.9c5.7,1.4,11.5-2,12.9-7.8
			l10.7-42.7C405.8,116.7,405.1,113.3,403.1,110.8z"/>
	</g>
</g>
<g>
	<g>
		<path class="st0" d="M245.3,106.7h-128c-5.9,0-10.7,4.8-10.7,10.7s4.8,10.7,10.7,10.7h117.3v241.9l-54.8-15.7l-9.4-47
			c-1.2-5.8-6.7-9.5-12.5-8.4c-5.8,1.2-9.5,6.8-8.4,12.5l10.7,53.3c0.8,3.9,3.7,7.1,7.5,8.2l74.7,21.3c1,0.3,1.9,0.4,2.9,0.4
			c2.3,0,4.5-0.7,6.4-2.2c2.7-2,4.2-5.2,4.2-8.5V117.3C256,111.4,251.2,106.7,245.3,106.7z"/>
	</g>
</g>
</svg>
