<svg xmlns="http://www.w3.org/2000/svg" xmlns:xlink="http://www.w3.org/1999/xlink" width="103.196" height="184.196" viewBox="0 0 103.196 184.196">
  <defs>
    <clipPath id="clip-path">
      <rect width="103.196" height="184.196" fill="none"/>
    </clipPath>
  </defs>
  <g id="Repeat_Grid_1" data-name="Repeat Grid 1" clip-path="url(#clip-path)">
    <g transform="translate(-728.867 -1437.772)">
      <circle id="Ellipse_1857" data-name="Ellipse 1857" cx="1.598" cy="1.598" r="1.598" transform="translate(728.867 1437.772)" fill="#b7b4b9"/>
    </g>
    <g transform="translate(-717.867 -1437.772)">
      <circle id="Ellipse_1857-2" data-name="Ellipse 1857" cx="1.598" cy="1.598" r="1.598" transform="translate(728.867 1437.772)" fill="#b7b4b9"/>
    </g>
    <g transform="translate(-706.867 -1437.772)">
      <circle id="Ellipse_1857-3" data-name="Ellipse 1857" cx="1.598" cy="1.598" r="1.598" transform="translate(728.867 1437.772)" fill="#b7b4b9"/>
    </g>
    <g transform="translate(-695.867 -1437.772)">
      <circle id="Ellipse_1857-4" data-name="Ellipse 1857" cx="1.598" cy="1.598" r="1.598" transform="translate(728.867 1437.772)" fill="#b7b4b9"/>
    </g>
    <g transform="translate(-684.867 -1437.772)">
      <circle id="Ellipse_1857-5" data-name="Ellipse 1857" cx="1.598" cy="1.598" r="1.598" transform="translate(728.867 1437.772)" fill="#b7b4b9"/>
    </g>
    <g transform="translate(-673.867 -1437.772)">
      <circle id="Ellipse_1857-6" data-name="Ellipse 1857" cx="1.598" cy="1.598" r="1.598" transform="translate(728.867 1437.772)" fill="#b7b4b9"/>
    </g>
    <g transform="translate(-662.867 -1437.772)">
      <circle id="Ellipse_1857-7" data-name="Ellipse 1857" cx="1.598" cy="1.598" r="1.598" transform="translate(728.867 1437.772)" fill="#b7b4b9"/>
    </g>
    <g transform="translate(-651.867 -1437.772)">
      <circle id="Ellipse_1857-8" data-name="Ellipse 1857" cx="1.598" cy="1.598" r="1.598" transform="translate(728.867 1437.772)" fill="#b7b4b9"/>
    </g>
    <g transform="translate(-640.867 -1437.772)">
      <circle id="Ellipse_1857-9" data-name="Ellipse 1857" cx="1.598" cy="1.598" r="1.598" transform="translate(728.867 1437.772)" fill="#b7b4b9"/>
    </g>
    <g transform="translate(-629.867 -1437.772)">
      <circle id="Ellipse_1857-10" data-name="Ellipse 1857" cx="1.598" cy="1.598" r="1.598" transform="translate(728.867 1437.772)" fill="#b7b4b9"/>
    </g>
    <g transform="translate(-728.867 -1426.772)">
      <circle id="Ellipse_1857-11" data-name="Ellipse 1857" cx="1.598" cy="1.598" r="1.598" transform="translate(728.867 1437.772)" fill="#b7b4b9"/>
    </g>
    <g transform="translate(-717.867 -1426.772)">
      <circle id="Ellipse_1857-12" data-name="Ellipse 1857" cx="1.598" cy="1.598" r="1.598" transform="translate(728.867 1437.772)" fill="#b7b4b9"/>
    </g>
    <g transform="translate(-706.867 -1426.772)">
      <circle id="Ellipse_1857-13" data-name="Ellipse 1857" cx="1.598" cy="1.598" r="1.598" transform="translate(728.867 1437.772)" fill="#b7b4b9"/>
    </g>
    <g transform="translate(-695.867 -1426.772)">
      <circle id="Ellipse_1857-14" data-name="Ellipse 1857" cx="1.598" cy="1.598" r="1.598" transform="translate(728.867 1437.772)" fill="#b7b4b9"/>
    </g>
    <g transform="translate(-684.867 -1426.772)">
      <circle id="Ellipse_1857-15" data-name="Ellipse 1857" cx="1.598" cy="1.598" r="1.598" transform="translate(728.867 1437.772)" fill="#b7b4b9"/>
    </g>
    <g transform="translate(-673.867 -1426.772)">
      <circle id="Ellipse_1857-16" data-name="Ellipse 1857" cx="1.598" cy="1.598" r="1.598" transform="translate(728.867 1437.772)" fill="#b7b4b9"/>
    </g>
    <g transform="translate(-662.867 -1426.772)">
      <circle id="Ellipse_1857-17" data-name="Ellipse 1857" cx="1.598" cy="1.598" r="1.598" transform="translate(728.867 1437.772)" fill="#b7b4b9"/>
    </g>
    <g transform="translate(-651.867 -1426.772)">
      <circle id="Ellipse_1857-18" data-name="Ellipse 1857" cx="1.598" cy="1.598" r="1.598" transform="translate(728.867 1437.772)" fill="#b7b4b9"/>
    </g>
    <g transform="translate(-640.867 -1426.772)">
      <circle id="Ellipse_1857-19" data-name="Ellipse 1857" cx="1.598" cy="1.598" r="1.598" transform="translate(728.867 1437.772)" fill="#b7b4b9"/>
    </g>
    <g transform="translate(-629.867 -1426.772)">
      <circle id="Ellipse_1857-20" data-name="Ellipse 1857" cx="1.598" cy="1.598" r="1.598" transform="translate(728.867 1437.772)" fill="#b7b4b9"/>
    </g>
    <g transform="translate(-728.867 -1415.772)">
      <circle id="Ellipse_1857-21" data-name="Ellipse 1857" cx="1.598" cy="1.598" r="1.598" transform="translate(728.867 1437.772)" fill="#b7b4b9"/>
    </g>
    <g transform="translate(-717.867 -1415.772)">
      <circle id="Ellipse_1857-22" data-name="Ellipse 1857" cx="1.598" cy="1.598" r="1.598" transform="translate(728.867 1437.772)" fill="#b7b4b9"/>
    </g>
    <g transform="translate(-706.867 -1415.772)">
      <circle id="Ellipse_1857-23" data-name="Ellipse 1857" cx="1.598" cy="1.598" r="1.598" transform="translate(728.867 1437.772)" fill="#b7b4b9"/>
    </g>
    <g transform="translate(-695.867 -1415.772)">
      <circle id="Ellipse_1857-24" data-name="Ellipse 1857" cx="1.598" cy="1.598" r="1.598" transform="translate(728.867 1437.772)" fill="#b7b4b9"/>
    </g>
    <g transform="translate(-684.867 -1415.772)">
      <circle id="Ellipse_1857-25" data-name="Ellipse 1857" cx="1.598" cy="1.598" r="1.598" transform="translate(728.867 1437.772)" fill="#b7b4b9"/>
    </g>
    <g transform="translate(-673.867 -1415.772)">
      <circle id="Ellipse_1857-26" data-name="Ellipse 1857" cx="1.598" cy="1.598" r="1.598" transform="translate(728.867 1437.772)" fill="#b7b4b9"/>
    </g>
    <g transform="translate(-662.867 -1415.772)">
      <circle id="Ellipse_1857-27" data-name="Ellipse 1857" cx="1.598" cy="1.598" r="1.598" transform="translate(728.867 1437.772)" fill="#b7b4b9"/>
    </g>
    <g transform="translate(-651.867 -1415.772)">
      <circle id="Ellipse_1857-28" data-name="Ellipse 1857" cx="1.598" cy="1.598" r="1.598" transform="translate(728.867 1437.772)" fill="#b7b4b9"/>
    </g>
    <g transform="translate(-640.867 -1415.772)">
      <circle id="Ellipse_1857-29" data-name="Ellipse 1857" cx="1.598" cy="1.598" r="1.598" transform="translate(728.867 1437.772)" fill="#b7b4b9"/>
    </g>
    <g transform="translate(-629.867 -1415.772)">
      <circle id="Ellipse_1857-30" data-name="Ellipse 1857" cx="1.598" cy="1.598" r="1.598" transform="translate(728.867 1437.772)" fill="#b7b4b9"/>
    </g>
    <g transform="translate(-728.867 -1404.772)">
      <circle id="Ellipse_1857-31" data-name="Ellipse 1857" cx="1.598" cy="1.598" r="1.598" transform="translate(728.867 1437.772)" fill="#b7b4b9"/>
    </g>
    <g transform="translate(-717.867 -1404.772)">
      <circle id="Ellipse_1857-32" data-name="Ellipse 1857" cx="1.598" cy="1.598" r="1.598" transform="translate(728.867 1437.772)" fill="#b7b4b9"/>
    </g>
    <g transform="translate(-706.867 -1404.772)">
      <circle id="Ellipse_1857-33" data-name="Ellipse 1857" cx="1.598" cy="1.598" r="1.598" transform="translate(728.867 1437.772)" fill="#b7b4b9"/>
    </g>
    <g transform="translate(-695.867 -1404.772)">
      <circle id="Ellipse_1857-34" data-name="Ellipse 1857" cx="1.598" cy="1.598" r="1.598" transform="translate(728.867 1437.772)" fill="#b7b4b9"/>
    </g>
    <g transform="translate(-684.867 -1404.772)">
      <circle id="Ellipse_1857-35" data-name="Ellipse 1857" cx="1.598" cy="1.598" r="1.598" transform="translate(728.867 1437.772)" fill="#b7b4b9"/>
    </g>
    <g transform="translate(-673.867 -1404.772)">
      <circle id="Ellipse_1857-36" data-name="Ellipse 1857" cx="1.598" cy="1.598" r="1.598" transform="translate(728.867 1437.772)" fill="#b7b4b9"/>
    </g>
    <g transform="translate(-662.867 -1404.772)">
      <circle id="Ellipse_1857-37" data-name="Ellipse 1857" cx="1.598" cy="1.598" r="1.598" transform="translate(728.867 1437.772)" fill="#b7b4b9"/>
    </g>
    <g transform="translate(-651.867 -1404.772)">
      <circle id="Ellipse_1857-38" data-name="Ellipse 1857" cx="1.598" cy="1.598" r="1.598" transform="translate(728.867 1437.772)" fill="#b7b4b9"/>
    </g>
    <g transform="translate(-640.867 -1404.772)">
      <circle id="Ellipse_1857-39" data-name="Ellipse 1857" cx="1.598" cy="1.598" r="1.598" transform="translate(728.867 1437.772)" fill="#b7b4b9"/>
    </g>
    <g transform="translate(-629.867 -1404.772)">
      <circle id="Ellipse_1857-40" data-name="Ellipse 1857" cx="1.598" cy="1.598" r="1.598" transform="translate(728.867 1437.772)" fill="#b7b4b9"/>
    </g>
    <g transform="translate(-728.867 -1393.772)">
      <circle id="Ellipse_1857-41" data-name="Ellipse 1857" cx="1.598" cy="1.598" r="1.598" transform="translate(728.867 1437.772)" fill="#b7b4b9"/>
    </g>
    <g transform="translate(-717.867 -1393.772)">
      <circle id="Ellipse_1857-42" data-name="Ellipse 1857" cx="1.598" cy="1.598" r="1.598" transform="translate(728.867 1437.772)" fill="#b7b4b9"/>
    </g>
    <g transform="translate(-706.867 -1393.772)">
      <circle id="Ellipse_1857-43" data-name="Ellipse 1857" cx="1.598" cy="1.598" r="1.598" transform="translate(728.867 1437.772)" fill="#b7b4b9"/>
    </g>
    <g transform="translate(-695.867 -1393.772)">
      <circle id="Ellipse_1857-44" data-name="Ellipse 1857" cx="1.598" cy="1.598" r="1.598" transform="translate(728.867 1437.772)" fill="#b7b4b9"/>
    </g>
    <g transform="translate(-684.867 -1393.772)">
      <circle id="Ellipse_1857-45" data-name="Ellipse 1857" cx="1.598" cy="1.598" r="1.598" transform="translate(728.867 1437.772)" fill="#b7b4b9"/>
    </g>
    <g transform="translate(-673.867 -1393.772)">
      <circle id="Ellipse_1857-46" data-name="Ellipse 1857" cx="1.598" cy="1.598" r="1.598" transform="translate(728.867 1437.772)" fill="#b7b4b9"/>
    </g>
    <g transform="translate(-662.867 -1393.772)">
      <circle id="Ellipse_1857-47" data-name="Ellipse 1857" cx="1.598" cy="1.598" r="1.598" transform="translate(728.867 1437.772)" fill="#b7b4b9"/>
    </g>
    <g transform="translate(-651.867 -1393.772)">
      <circle id="Ellipse_1857-48" data-name="Ellipse 1857" cx="1.598" cy="1.598" r="1.598" transform="translate(728.867 1437.772)" fill="#b7b4b9"/>
    </g>
    <g transform="translate(-640.867 -1393.772)">
      <circle id="Ellipse_1857-49" data-name="Ellipse 1857" cx="1.598" cy="1.598" r="1.598" transform="translate(728.867 1437.772)" fill="#b7b4b9"/>
    </g>
    <g transform="translate(-629.867 -1393.772)">
      <circle id="Ellipse_1857-50" data-name="Ellipse 1857" cx="1.598" cy="1.598" r="1.598" transform="translate(728.867 1437.772)" fill="#b7b4b9"/>
    </g>
    <g transform="translate(-728.867 -1382.772)">
      <circle id="Ellipse_1857-51" data-name="Ellipse 1857" cx="1.598" cy="1.598" r="1.598" transform="translate(728.867 1437.772)" fill="#b7b4b9"/>
    </g>
    <g transform="translate(-717.867 -1382.772)">
      <circle id="Ellipse_1857-52" data-name="Ellipse 1857" cx="1.598" cy="1.598" r="1.598" transform="translate(728.867 1437.772)" fill="#b7b4b9"/>
    </g>
    <g transform="translate(-706.867 -1382.772)">
      <circle id="Ellipse_1857-53" data-name="Ellipse 1857" cx="1.598" cy="1.598" r="1.598" transform="translate(728.867 1437.772)" fill="#b7b4b9"/>
    </g>
    <g transform="translate(-695.867 -1382.772)">
      <circle id="Ellipse_1857-54" data-name="Ellipse 1857" cx="1.598" cy="1.598" r="1.598" transform="translate(728.867 1437.772)" fill="#b7b4b9"/>
    </g>
    <g transform="translate(-684.867 -1382.772)">
      <circle id="Ellipse_1857-55" data-name="Ellipse 1857" cx="1.598" cy="1.598" r="1.598" transform="translate(728.867 1437.772)" fill="#b7b4b9"/>
    </g>
    <g transform="translate(-673.867 -1382.772)">
      <circle id="Ellipse_1857-56" data-name="Ellipse 1857" cx="1.598" cy="1.598" r="1.598" transform="translate(728.867 1437.772)" fill="#b7b4b9"/>
    </g>
    <g transform="translate(-662.867 -1382.772)">
      <circle id="Ellipse_1857-57" data-name="Ellipse 1857" cx="1.598" cy="1.598" r="1.598" transform="translate(728.867 1437.772)" fill="#b7b4b9"/>
    </g>
    <g transform="translate(-651.867 -1382.772)">
      <circle id="Ellipse_1857-58" data-name="Ellipse 1857" cx="1.598" cy="1.598" r="1.598" transform="translate(728.867 1437.772)" fill="#b7b4b9"/>
    </g>
    <g transform="translate(-640.867 -1382.772)">
      <circle id="Ellipse_1857-59" data-name="Ellipse 1857" cx="1.598" cy="1.598" r="1.598" transform="translate(728.867 1437.772)" fill="#b7b4b9"/>
    </g>
    <g transform="translate(-629.867 -1382.772)">
      <circle id="Ellipse_1857-60" data-name="Ellipse 1857" cx="1.598" cy="1.598" r="1.598" transform="translate(728.867 1437.772)" fill="#b7b4b9"/>
    </g>
    <g transform="translate(-728.867 -1371.772)">
      <circle id="Ellipse_1857-61" data-name="Ellipse 1857" cx="1.598" cy="1.598" r="1.598" transform="translate(728.867 1437.772)" fill="#b7b4b9"/>
    </g>
    <g transform="translate(-717.867 -1371.772)">
      <circle id="Ellipse_1857-62" data-name="Ellipse 1857" cx="1.598" cy="1.598" r="1.598" transform="translate(728.867 1437.772)" fill="#b7b4b9"/>
    </g>
    <g transform="translate(-706.867 -1371.772)">
      <circle id="Ellipse_1857-63" data-name="Ellipse 1857" cx="1.598" cy="1.598" r="1.598" transform="translate(728.867 1437.772)" fill="#b7b4b9"/>
    </g>
    <g transform="translate(-695.867 -1371.772)">
      <circle id="Ellipse_1857-64" data-name="Ellipse 1857" cx="1.598" cy="1.598" r="1.598" transform="translate(728.867 1437.772)" fill="#b7b4b9"/>
    </g>
    <g transform="translate(-684.867 -1371.772)">
      <circle id="Ellipse_1857-65" data-name="Ellipse 1857" cx="1.598" cy="1.598" r="1.598" transform="translate(728.867 1437.772)" fill="#b7b4b9"/>
    </g>
    <g transform="translate(-673.867 -1371.772)">
      <circle id="Ellipse_1857-66" data-name="Ellipse 1857" cx="1.598" cy="1.598" r="1.598" transform="translate(728.867 1437.772)" fill="#b7b4b9"/>
    </g>
    <g transform="translate(-662.867 -1371.772)">
      <circle id="Ellipse_1857-67" data-name="Ellipse 1857" cx="1.598" cy="1.598" r="1.598" transform="translate(728.867 1437.772)" fill="#b7b4b9"/>
    </g>
    <g transform="translate(-651.867 -1371.772)">
      <circle id="Ellipse_1857-68" data-name="Ellipse 1857" cx="1.598" cy="1.598" r="1.598" transform="translate(728.867 1437.772)" fill="#b7b4b9"/>
    </g>
    <g transform="translate(-640.867 -1371.772)">
      <circle id="Ellipse_1857-69" data-name="Ellipse 1857" cx="1.598" cy="1.598" r="1.598" transform="translate(728.867 1437.772)" fill="#b7b4b9"/>
    </g>
    <g transform="translate(-629.867 -1371.772)">
      <circle id="Ellipse_1857-70" data-name="Ellipse 1857" cx="1.598" cy="1.598" r="1.598" transform="translate(728.867 1437.772)" fill="#b7b4b9"/>
    </g>
    <g transform="translate(-728.867 -1360.772)">
      <circle id="Ellipse_1857-71" data-name="Ellipse 1857" cx="1.598" cy="1.598" r="1.598" transform="translate(728.867 1437.772)" fill="#b7b4b9"/>
    </g>
    <g transform="translate(-717.867 -1360.772)">
      <circle id="Ellipse_1857-72" data-name="Ellipse 1857" cx="1.598" cy="1.598" r="1.598" transform="translate(728.867 1437.772)" fill="#b7b4b9"/>
    </g>
    <g transform="translate(-706.867 -1360.772)">
      <circle id="Ellipse_1857-73" data-name="Ellipse 1857" cx="1.598" cy="1.598" r="1.598" transform="translate(728.867 1437.772)" fill="#b7b4b9"/>
    </g>
    <g transform="translate(-695.867 -1360.772)">
      <circle id="Ellipse_1857-74" data-name="Ellipse 1857" cx="1.598" cy="1.598" r="1.598" transform="translate(728.867 1437.772)" fill="#b7b4b9"/>
    </g>
    <g transform="translate(-684.867 -1360.772)">
      <circle id="Ellipse_1857-75" data-name="Ellipse 1857" cx="1.598" cy="1.598" r="1.598" transform="translate(728.867 1437.772)" fill="#b7b4b9"/>
    </g>
    <g transform="translate(-673.867 -1360.772)">
      <circle id="Ellipse_1857-76" data-name="Ellipse 1857" cx="1.598" cy="1.598" r="1.598" transform="translate(728.867 1437.772)" fill="#b7b4b9"/>
    </g>
    <g transform="translate(-662.867 -1360.772)">
      <circle id="Ellipse_1857-77" data-name="Ellipse 1857" cx="1.598" cy="1.598" r="1.598" transform="translate(728.867 1437.772)" fill="#b7b4b9"/>
    </g>
    <g transform="translate(-651.867 -1360.772)">
      <circle id="Ellipse_1857-78" data-name="Ellipse 1857" cx="1.598" cy="1.598" r="1.598" transform="translate(728.867 1437.772)" fill="#b7b4b9"/>
    </g>
    <g transform="translate(-640.867 -1360.772)">
      <circle id="Ellipse_1857-79" data-name="Ellipse 1857" cx="1.598" cy="1.598" r="1.598" transform="translate(728.867 1437.772)" fill="#b7b4b9"/>
    </g>
    <g transform="translate(-629.867 -1360.772)">
      <circle id="Ellipse_1857-80" data-name="Ellipse 1857" cx="1.598" cy="1.598" r="1.598" transform="translate(728.867 1437.772)" fill="#b7b4b9"/>
    </g>
    <g transform="translate(-728.867 -1349.772)">
      <circle id="Ellipse_1857-81" data-name="Ellipse 1857" cx="1.598" cy="1.598" r="1.598" transform="translate(728.867 1437.772)" fill="#b7b4b9"/>
    </g>
    <g transform="translate(-717.867 -1349.772)">
      <circle id="Ellipse_1857-82" data-name="Ellipse 1857" cx="1.598" cy="1.598" r="1.598" transform="translate(728.867 1437.772)" fill="#b7b4b9"/>
    </g>
    <g transform="translate(-706.867 -1349.772)">
      <circle id="Ellipse_1857-83" data-name="Ellipse 1857" cx="1.598" cy="1.598" r="1.598" transform="translate(728.867 1437.772)" fill="#b7b4b9"/>
    </g>
    <g transform="translate(-695.867 -1349.772)">
      <circle id="Ellipse_1857-84" data-name="Ellipse 1857" cx="1.598" cy="1.598" r="1.598" transform="translate(728.867 1437.772)" fill="#b7b4b9"/>
    </g>
    <g transform="translate(-684.867 -1349.772)">
      <circle id="Ellipse_1857-85" data-name="Ellipse 1857" cx="1.598" cy="1.598" r="1.598" transform="translate(728.867 1437.772)" fill="#b7b4b9"/>
    </g>
    <g transform="translate(-673.867 -1349.772)">
      <circle id="Ellipse_1857-86" data-name="Ellipse 1857" cx="1.598" cy="1.598" r="1.598" transform="translate(728.867 1437.772)" fill="#b7b4b9"/>
    </g>
    <g transform="translate(-662.867 -1349.772)">
      <circle id="Ellipse_1857-87" data-name="Ellipse 1857" cx="1.598" cy="1.598" r="1.598" transform="translate(728.867 1437.772)" fill="#b7b4b9"/>
    </g>
    <g transform="translate(-651.867 -1349.772)">
      <circle id="Ellipse_1857-88" data-name="Ellipse 1857" cx="1.598" cy="1.598" r="1.598" transform="translate(728.867 1437.772)" fill="#b7b4b9"/>
    </g>
    <g transform="translate(-640.867 -1349.772)">
      <circle id="Ellipse_1857-89" data-name="Ellipse 1857" cx="1.598" cy="1.598" r="1.598" transform="translate(728.867 1437.772)" fill="#b7b4b9"/>
    </g>
    <g transform="translate(-629.867 -1349.772)">
      <circle id="Ellipse_1857-90" data-name="Ellipse 1857" cx="1.598" cy="1.598" r="1.598" transform="translate(728.867 1437.772)" fill="#b7b4b9"/>
    </g>
    <g transform="translate(-728.867 -1338.772)">
      <circle id="Ellipse_1857-91" data-name="Ellipse 1857" cx="1.598" cy="1.598" r="1.598" transform="translate(728.867 1437.772)" fill="#b7b4b9"/>
    </g>
    <g transform="translate(-717.867 -1338.772)">
      <circle id="Ellipse_1857-92" data-name="Ellipse 1857" cx="1.598" cy="1.598" r="1.598" transform="translate(728.867 1437.772)" fill="#b7b4b9"/>
    </g>
    <g transform="translate(-706.867 -1338.772)">
      <circle id="Ellipse_1857-93" data-name="Ellipse 1857" cx="1.598" cy="1.598" r="1.598" transform="translate(728.867 1437.772)" fill="#b7b4b9"/>
    </g>
    <g transform="translate(-695.867 -1338.772)">
      <circle id="Ellipse_1857-94" data-name="Ellipse 1857" cx="1.598" cy="1.598" r="1.598" transform="translate(728.867 1437.772)" fill="#b7b4b9"/>
    </g>
    <g transform="translate(-684.867 -1338.772)">
      <circle id="Ellipse_1857-95" data-name="Ellipse 1857" cx="1.598" cy="1.598" r="1.598" transform="translate(728.867 1437.772)" fill="#b7b4b9"/>
    </g>
    <g transform="translate(-673.867 -1338.772)">
      <circle id="Ellipse_1857-96" data-name="Ellipse 1857" cx="1.598" cy="1.598" r="1.598" transform="translate(728.867 1437.772)" fill="#b7b4b9"/>
    </g>
    <g transform="translate(-662.867 -1338.772)">
      <circle id="Ellipse_1857-97" data-name="Ellipse 1857" cx="1.598" cy="1.598" r="1.598" transform="translate(728.867 1437.772)" fill="#b7b4b9"/>
    </g>
    <g transform="translate(-651.867 -1338.772)">
      <circle id="Ellipse_1857-98" data-name="Ellipse 1857" cx="1.598" cy="1.598" r="1.598" transform="translate(728.867 1437.772)" fill="#b7b4b9"/>
    </g>
    <g transform="translate(-640.867 -1338.772)">
      <circle id="Ellipse_1857-99" data-name="Ellipse 1857" cx="1.598" cy="1.598" r="1.598" transform="translate(728.867 1437.772)" fill="#b7b4b9"/>
    </g>
    <g transform="translate(-629.867 -1338.772)">
      <circle id="Ellipse_1857-100" data-name="Ellipse 1857" cx="1.598" cy="1.598" r="1.598" transform="translate(728.867 1437.772)" fill="#b7b4b9"/>
    </g>
    <g transform="translate(-728.867 -1327.772)">
      <circle id="Ellipse_1857-101" data-name="Ellipse 1857" cx="1.598" cy="1.598" r="1.598" transform="translate(728.867 1437.772)" fill="#b7b4b9"/>
    </g>
    <g transform="translate(-717.867 -1327.772)">
      <circle id="Ellipse_1857-102" data-name="Ellipse 1857" cx="1.598" cy="1.598" r="1.598" transform="translate(728.867 1437.772)" fill="#b7b4b9"/>
    </g>
    <g transform="translate(-706.867 -1327.772)">
      <circle id="Ellipse_1857-103" data-name="Ellipse 1857" cx="1.598" cy="1.598" r="1.598" transform="translate(728.867 1437.772)" fill="#b7b4b9"/>
    </g>
    <g transform="translate(-695.867 -1327.772)">
      <circle id="Ellipse_1857-104" data-name="Ellipse 1857" cx="1.598" cy="1.598" r="1.598" transform="translate(728.867 1437.772)" fill="#b7b4b9"/>
    </g>
    <g transform="translate(-684.867 -1327.772)">
      <circle id="Ellipse_1857-105" data-name="Ellipse 1857" cx="1.598" cy="1.598" r="1.598" transform="translate(728.867 1437.772)" fill="#b7b4b9"/>
    </g>
    <g transform="translate(-673.867 -1327.772)">
      <circle id="Ellipse_1857-106" data-name="Ellipse 1857" cx="1.598" cy="1.598" r="1.598" transform="translate(728.867 1437.772)" fill="#b7b4b9"/>
    </g>
    <g transform="translate(-662.867 -1327.772)">
      <circle id="Ellipse_1857-107" data-name="Ellipse 1857" cx="1.598" cy="1.598" r="1.598" transform="translate(728.867 1437.772)" fill="#b7b4b9"/>
    </g>
    <g transform="translate(-651.867 -1327.772)">
      <circle id="Ellipse_1857-108" data-name="Ellipse 1857" cx="1.598" cy="1.598" r="1.598" transform="translate(728.867 1437.772)" fill="#b7b4b9"/>
    </g>
    <g transform="translate(-640.867 -1327.772)">
      <circle id="Ellipse_1857-109" data-name="Ellipse 1857" cx="1.598" cy="1.598" r="1.598" transform="translate(728.867 1437.772)" fill="#b7b4b9"/>
    </g>
    <g transform="translate(-629.867 -1327.772)">
      <circle id="Ellipse_1857-110" data-name="Ellipse 1857" cx="1.598" cy="1.598" r="1.598" transform="translate(728.867 1437.772)" fill="#b7b4b9"/>
    </g>
    <g transform="translate(-728.867 -1316.772)">
      <circle id="Ellipse_1857-111" data-name="Ellipse 1857" cx="1.598" cy="1.598" r="1.598" transform="translate(728.867 1437.772)" fill="#b7b4b9"/>
    </g>
    <g transform="translate(-717.867 -1316.772)">
      <circle id="Ellipse_1857-112" data-name="Ellipse 1857" cx="1.598" cy="1.598" r="1.598" transform="translate(728.867 1437.772)" fill="#b7b4b9"/>
    </g>
    <g transform="translate(-706.867 -1316.772)">
      <circle id="Ellipse_1857-113" data-name="Ellipse 1857" cx="1.598" cy="1.598" r="1.598" transform="translate(728.867 1437.772)" fill="#b7b4b9"/>
    </g>
    <g transform="translate(-695.867 -1316.772)">
      <circle id="Ellipse_1857-114" data-name="Ellipse 1857" cx="1.598" cy="1.598" r="1.598" transform="translate(728.867 1437.772)" fill="#b7b4b9"/>
    </g>
    <g transform="translate(-684.867 -1316.772)">
      <circle id="Ellipse_1857-115" data-name="Ellipse 1857" cx="1.598" cy="1.598" r="1.598" transform="translate(728.867 1437.772)" fill="#b7b4b9"/>
    </g>
    <g transform="translate(-673.867 -1316.772)">
      <circle id="Ellipse_1857-116" data-name="Ellipse 1857" cx="1.598" cy="1.598" r="1.598" transform="translate(728.867 1437.772)" fill="#b7b4b9"/>
    </g>
    <g transform="translate(-662.867 -1316.772)">
      <circle id="Ellipse_1857-117" data-name="Ellipse 1857" cx="1.598" cy="1.598" r="1.598" transform="translate(728.867 1437.772)" fill="#b7b4b9"/>
    </g>
    <g transform="translate(-651.867 -1316.772)">
      <circle id="Ellipse_1857-118" data-name="Ellipse 1857" cx="1.598" cy="1.598" r="1.598" transform="translate(728.867 1437.772)" fill="#b7b4b9"/>
    </g>
    <g transform="translate(-640.867 -1316.772)">
      <circle id="Ellipse_1857-119" data-name="Ellipse 1857" cx="1.598" cy="1.598" r="1.598" transform="translate(728.867 1437.772)" fill="#b7b4b9"/>
    </g>
    <g transform="translate(-629.867 -1316.772)">
      <circle id="Ellipse_1857-120" data-name="Ellipse 1857" cx="1.598" cy="1.598" r="1.598" transform="translate(728.867 1437.772)" fill="#b7b4b9"/>
    </g>
    <g transform="translate(-728.867 -1305.772)">
      <circle id="Ellipse_1857-121" data-name="Ellipse 1857" cx="1.598" cy="1.598" r="1.598" transform="translate(728.867 1437.772)" fill="#b7b4b9"/>
    </g>
    <g transform="translate(-717.867 -1305.772)">
      <circle id="Ellipse_1857-122" data-name="Ellipse 1857" cx="1.598" cy="1.598" r="1.598" transform="translate(728.867 1437.772)" fill="#b7b4b9"/>
    </g>
    <g transform="translate(-706.867 -1305.772)">
      <circle id="Ellipse_1857-123" data-name="Ellipse 1857" cx="1.598" cy="1.598" r="1.598" transform="translate(728.867 1437.772)" fill="#b7b4b9"/>
    </g>
    <g transform="translate(-695.867 -1305.772)">
      <circle id="Ellipse_1857-124" data-name="Ellipse 1857" cx="1.598" cy="1.598" r="1.598" transform="translate(728.867 1437.772)" fill="#b7b4b9"/>
    </g>
    <g transform="translate(-684.867 -1305.772)">
      <circle id="Ellipse_1857-125" data-name="Ellipse 1857" cx="1.598" cy="1.598" r="1.598" transform="translate(728.867 1437.772)" fill="#b7b4b9"/>
    </g>
    <g transform="translate(-673.867 -1305.772)">
      <circle id="Ellipse_1857-126" data-name="Ellipse 1857" cx="1.598" cy="1.598" r="1.598" transform="translate(728.867 1437.772)" fill="#b7b4b9"/>
    </g>
    <g transform="translate(-662.867 -1305.772)">
      <circle id="Ellipse_1857-127" data-name="Ellipse 1857" cx="1.598" cy="1.598" r="1.598" transform="translate(728.867 1437.772)" fill="#b7b4b9"/>
    </g>
    <g transform="translate(-651.867 -1305.772)">
      <circle id="Ellipse_1857-128" data-name="Ellipse 1857" cx="1.598" cy="1.598" r="1.598" transform="translate(728.867 1437.772)" fill="#b7b4b9"/>
    </g>
    <g transform="translate(-640.867 -1305.772)">
      <circle id="Ellipse_1857-129" data-name="Ellipse 1857" cx="1.598" cy="1.598" r="1.598" transform="translate(728.867 1437.772)" fill="#b7b4b9"/>
    </g>
    <g transform="translate(-629.867 -1305.772)">
      <circle id="Ellipse_1857-130" data-name="Ellipse 1857" cx="1.598" cy="1.598" r="1.598" transform="translate(728.867 1437.772)" fill="#b7b4b9"/>
    </g>
    <g transform="translate(-728.867 -1294.772)">
      <circle id="Ellipse_1857-131" data-name="Ellipse 1857" cx="1.598" cy="1.598" r="1.598" transform="translate(728.867 1437.772)" fill="#b7b4b9"/>
    </g>
    <g transform="translate(-717.867 -1294.772)">
      <circle id="Ellipse_1857-132" data-name="Ellipse 1857" cx="1.598" cy="1.598" r="1.598" transform="translate(728.867 1437.772)" fill="#b7b4b9"/>
    </g>
    <g transform="translate(-706.867 -1294.772)">
      <circle id="Ellipse_1857-133" data-name="Ellipse 1857" cx="1.598" cy="1.598" r="1.598" transform="translate(728.867 1437.772)" fill="#b7b4b9"/>
    </g>
    <g transform="translate(-695.867 -1294.772)">
      <circle id="Ellipse_1857-134" data-name="Ellipse 1857" cx="1.598" cy="1.598" r="1.598" transform="translate(728.867 1437.772)" fill="#b7b4b9"/>
    </g>
    <g transform="translate(-684.867 -1294.772)">
      <circle id="Ellipse_1857-135" data-name="Ellipse 1857" cx="1.598" cy="1.598" r="1.598" transform="translate(728.867 1437.772)" fill="#b7b4b9"/>
    </g>
    <g transform="translate(-673.867 -1294.772)">
      <circle id="Ellipse_1857-136" data-name="Ellipse 1857" cx="1.598" cy="1.598" r="1.598" transform="translate(728.867 1437.772)" fill="#b7b4b9"/>
    </g>
    <g transform="translate(-662.867 -1294.772)">
      <circle id="Ellipse_1857-137" data-name="Ellipse 1857" cx="1.598" cy="1.598" r="1.598" transform="translate(728.867 1437.772)" fill="#b7b4b9"/>
    </g>
    <g transform="translate(-651.867 -1294.772)">
      <circle id="Ellipse_1857-138" data-name="Ellipse 1857" cx="1.598" cy="1.598" r="1.598" transform="translate(728.867 1437.772)" fill="#b7b4b9"/>
    </g>
    <g transform="translate(-640.867 -1294.772)">
      <circle id="Ellipse_1857-139" data-name="Ellipse 1857" cx="1.598" cy="1.598" r="1.598" transform="translate(728.867 1437.772)" fill="#b7b4b9"/>
    </g>
    <g transform="translate(-629.867 -1294.772)">
      <circle id="Ellipse_1857-140" data-name="Ellipse 1857" cx="1.598" cy="1.598" r="1.598" transform="translate(728.867 1437.772)" fill="#b7b4b9"/>
    </g>
    <g transform="translate(-728.867 -1283.772)">
      <circle id="Ellipse_1857-141" data-name="Ellipse 1857" cx="1.598" cy="1.598" r="1.598" transform="translate(728.867 1437.772)" fill="#b7b4b9"/>
    </g>
    <g transform="translate(-717.867 -1283.772)">
      <circle id="Ellipse_1857-142" data-name="Ellipse 1857" cx="1.598" cy="1.598" r="1.598" transform="translate(728.867 1437.772)" fill="#b7b4b9"/>
    </g>
    <g transform="translate(-706.867 -1283.772)">
      <circle id="Ellipse_1857-143" data-name="Ellipse 1857" cx="1.598" cy="1.598" r="1.598" transform="translate(728.867 1437.772)" fill="#b7b4b9"/>
    </g>
    <g transform="translate(-695.867 -1283.772)">
      <circle id="Ellipse_1857-144" data-name="Ellipse 1857" cx="1.598" cy="1.598" r="1.598" transform="translate(728.867 1437.772)" fill="#b7b4b9"/>
    </g>
    <g transform="translate(-684.867 -1283.772)">
      <circle id="Ellipse_1857-145" data-name="Ellipse 1857" cx="1.598" cy="1.598" r="1.598" transform="translate(728.867 1437.772)" fill="#b7b4b9"/>
    </g>
    <g transform="translate(-673.867 -1283.772)">
      <circle id="Ellipse_1857-146" data-name="Ellipse 1857" cx="1.598" cy="1.598" r="1.598" transform="translate(728.867 1437.772)" fill="#b7b4b9"/>
    </g>
    <g transform="translate(-662.867 -1283.772)">
      <circle id="Ellipse_1857-147" data-name="Ellipse 1857" cx="1.598" cy="1.598" r="1.598" transform="translate(728.867 1437.772)" fill="#b7b4b9"/>
    </g>
    <g transform="translate(-651.867 -1283.772)">
      <circle id="Ellipse_1857-148" data-name="Ellipse 1857" cx="1.598" cy="1.598" r="1.598" transform="translate(728.867 1437.772)" fill="#b7b4b9"/>
    </g>
    <g transform="translate(-640.867 -1283.772)">
      <circle id="Ellipse_1857-149" data-name="Ellipse 1857" cx="1.598" cy="1.598" r="1.598" transform="translate(728.867 1437.772)" fill="#b7b4b9"/>
    </g>
    <g transform="translate(-629.867 -1283.772)">
      <circle id="Ellipse_1857-150" data-name="Ellipse 1857" cx="1.598" cy="1.598" r="1.598" transform="translate(728.867 1437.772)" fill="#b7b4b9"/>
    </g>
    <g transform="translate(-728.867 -1272.772)">
      <circle id="Ellipse_1857-151" data-name="Ellipse 1857" cx="1.598" cy="1.598" r="1.598" transform="translate(728.867 1437.772)" fill="#b7b4b9"/>
    </g>
    <g transform="translate(-717.867 -1272.772)">
      <circle id="Ellipse_1857-152" data-name="Ellipse 1857" cx="1.598" cy="1.598" r="1.598" transform="translate(728.867 1437.772)" fill="#b7b4b9"/>
    </g>
    <g transform="translate(-706.867 -1272.772)">
      <circle id="Ellipse_1857-153" data-name="Ellipse 1857" cx="1.598" cy="1.598" r="1.598" transform="translate(728.867 1437.772)" fill="#b7b4b9"/>
    </g>
    <g transform="translate(-695.867 -1272.772)">
      <circle id="Ellipse_1857-154" data-name="Ellipse 1857" cx="1.598" cy="1.598" r="1.598" transform="translate(728.867 1437.772)" fill="#b7b4b9"/>
    </g>
    <g transform="translate(-684.867 -1272.772)">
      <circle id="Ellipse_1857-155" data-name="Ellipse 1857" cx="1.598" cy="1.598" r="1.598" transform="translate(728.867 1437.772)" fill="#b7b4b9"/>
    </g>
    <g transform="translate(-673.867 -1272.772)">
      <circle id="Ellipse_1857-156" data-name="Ellipse 1857" cx="1.598" cy="1.598" r="1.598" transform="translate(728.867 1437.772)" fill="#b7b4b9"/>
    </g>
    <g transform="translate(-662.867 -1272.772)">
      <circle id="Ellipse_1857-157" data-name="Ellipse 1857" cx="1.598" cy="1.598" r="1.598" transform="translate(728.867 1437.772)" fill="#b7b4b9"/>
    </g>
    <g transform="translate(-651.867 -1272.772)">
      <circle id="Ellipse_1857-158" data-name="Ellipse 1857" cx="1.598" cy="1.598" r="1.598" transform="translate(728.867 1437.772)" fill="#b7b4b9"/>
    </g>
    <g transform="translate(-640.867 -1272.772)">
      <circle id="Ellipse_1857-159" data-name="Ellipse 1857" cx="1.598" cy="1.598" r="1.598" transform="translate(728.867 1437.772)" fill="#b7b4b9"/>
    </g>
    <g transform="translate(-629.867 -1272.772)">
      <circle id="Ellipse_1857-160" data-name="Ellipse 1857" cx="1.598" cy="1.598" r="1.598" transform="translate(728.867 1437.772)" fill="#b7b4b9"/>
    </g>
    <g transform="translate(-728.867 -1261.772)">
      <circle id="Ellipse_1857-161" data-name="Ellipse 1857" cx="1.598" cy="1.598" r="1.598" transform="translate(728.867 1437.772)" fill="#b7b4b9"/>
    </g>
    <g transform="translate(-717.867 -1261.772)">
      <circle id="Ellipse_1857-162" data-name="Ellipse 1857" cx="1.598" cy="1.598" r="1.598" transform="translate(728.867 1437.772)" fill="#b7b4b9"/>
    </g>
    <g transform="translate(-706.867 -1261.772)">
      <circle id="Ellipse_1857-163" data-name="Ellipse 1857" cx="1.598" cy="1.598" r="1.598" transform="translate(728.867 1437.772)" fill="#b7b4b9"/>
    </g>
    <g transform="translate(-695.867 -1261.772)">
      <circle id="Ellipse_1857-164" data-name="Ellipse 1857" cx="1.598" cy="1.598" r="1.598" transform="translate(728.867 1437.772)" fill="#b7b4b9"/>
    </g>
    <g transform="translate(-684.867 -1261.772)">
      <circle id="Ellipse_1857-165" data-name="Ellipse 1857" cx="1.598" cy="1.598" r="1.598" transform="translate(728.867 1437.772)" fill="#b7b4b9"/>
    </g>
    <g transform="translate(-673.867 -1261.772)">
      <circle id="Ellipse_1857-166" data-name="Ellipse 1857" cx="1.598" cy="1.598" r="1.598" transform="translate(728.867 1437.772)" fill="#b7b4b9"/>
    </g>
    <g transform="translate(-662.867 -1261.772)">
      <circle id="Ellipse_1857-167" data-name="Ellipse 1857" cx="1.598" cy="1.598" r="1.598" transform="translate(728.867 1437.772)" fill="#b7b4b9"/>
    </g>
    <g transform="translate(-651.867 -1261.772)">
      <circle id="Ellipse_1857-168" data-name="Ellipse 1857" cx="1.598" cy="1.598" r="1.598" transform="translate(728.867 1437.772)" fill="#b7b4b9"/>
    </g>
    <g transform="translate(-640.867 -1261.772)">
      <circle id="Ellipse_1857-169" data-name="Ellipse 1857" cx="1.598" cy="1.598" r="1.598" transform="translate(728.867 1437.772)" fill="#b7b4b9"/>
    </g>
    <g transform="translate(-629.867 -1261.772)">
      <circle id="Ellipse_1857-170" data-name="Ellipse 1857" cx="1.598" cy="1.598" r="1.598" transform="translate(728.867 1437.772)" fill="#b7b4b9"/>
    </g>
  </g>
</svg>
